/* XPM */
static char *result[] = {
/* columns rows colors chars-per-pixel */
"100 100 23 1 ",
"  c #FEE600",
". c #FFE600",
"X c #FEE700",
"o c #FFE700",
"O c #FEE800",
"+ c #FFE800",
"@ c #FEE900",
"# c #FFE900",
"$ c #FEEA00",
"% c #FFEA00",
"& c #FEEB00",
"* c #FFEB00",
"= c #FEEC00",
"- c #FFEC00",
"; c #FFED00",
": c #FEEE00",
"> c #FFEE00",
", c #FEEF00",
"< c #FFEF00",
"1 c #FFF000",
"2 c #FFF100",
"3 c #FFF200",
"4 c None",
/* pixels */
"4444444444444444444444444444444444444444444444444444444444444444444444444444444444444444444444444444",
"4444444444444444444444444444444444444444444444444444444444444444444444444444444444444444444444444444",
"4444444444444444444444444444444444444444444444444444444444444444444444444444444444444444444444444444",
"4444444444444444444444444444444444444444444444444444444444444444444444444444444444444444444444444444",
"4444444444444444444444444444444444444444444444444444444444444444444444444444444444444444444444444444",
"4444444444444444444444444444444444444444444444444444444444444444444444444444444444444444444444444444",
"4444444444444444444444444444444444444444444444444444444444444444444444444444444444444444444444444444",
"4444444444444444444444444444444444444444444444444444444444444444444444444444444444444444444444444444",
"4444444444444444444444444444444444444444444444444444444444444444444444444444444444444444444444444444",
"4444444444444444444444444444444444444444444444444444444444444444444444444444444444444444444444444444",
"4444444444444444444444444444444444444444444444444444444444444444444444444444444444444444444444444444",
"4444444444444444444444444444444444444444444444444444444444444444444444444444444444444444444444444444",
"4444444444444444444444444444444444444444444444444444444444444444444444444444444444444444444444444444",
"4444444444444444444444444444444444444444444444444444444444444444444444444444444444444444444444444444",
"4444444444444444444444444444444444444444444444444444444444444444444444444444444444444444444444444444",
"4444444444444444444444444444444444444444444444441>24444444444444444444444444444444444444444444444444",
"444444444444444444444444444444444444444444444442%..%,44444444444444444444444444444444444444444444444",
"4444444444444444444444444444444444444444444444-+....*44444444444444444444444444444444444444444444444",
"4444444444444444444444444444444444444444444444-o....+-4444444444444444444444444444444444444444444444",
"444444444444444444444444444444444444444444444-#......#=444444444444444444444444444444444444444444444",
"444444444444444444444444444444444444444444444>.......o$444444444444444444444444444444444444444444444",
"44444444444444444444444444444444444444444444<+........%&44444444444444444444444444444444444444444444",
"44444444444444444444444444444444444444444444*..........-44444444444444444444444444444444444444444444",
"4444444444444444444444444444444444444444444=+..........#=4444444444444444444444444444444444444444444",
"4444444444444444444444444444444444444444444*............<4444444444444444444444444444444444444444444",
"444444444444444444444444444444444444444444-o............o;444444444444444444444444444444444444444444",
"44444444444444444444444444444444444444444;%..............*444444444444444444444444444444444444444444",
"44444444444444444444444444444444444444444-o..............o*44444444444444444444444444444444444444444",
"4444444444444444444444444444444444444444<#...............o%@4444444444444444444444444444444444444444",
"4444444444444444444444444444444444444444%o................+-4444444444444444444444444444444444444444",
"444444444444444444444444444444444444444*#..................#&444444444444444444444444444444444444444",
"44444444444444444444444444444444444444%#...................+*444444444444444444444444444444444444444",
"4444444444444444444444444444444444444$#o....................+%44444444444444444444444444444444444444",
"444444444444444444444444444444444444&*o......................o%4444444444444444444444444444444444444",
"44444444444444444444444444444444444$#o........................o*&44444444444444444444444444444444444",
"444444444444444444444444444444444;-+...........................o+>O444444444444444444444444444444444",
"44444444444444444444444444444$*;#+...............................o+*>&+44444444444444444444444444444",
"444444444444444444444444=*-$**o......................................+-%$;&4444444444444444444444444",
"44444444444444444444*=@*-+................................................#>%->444444444444444444444",
"44444444444444444;%-#o.......................................................oo*-%144444444444444444",
"4444444444444444;+o..............................................................o%24444444444444444",
"444444444444444;o..................................................................14444444444444444",
"444444444444444;+..................................................................34444444444444444",
"4444444444444444*..................................................................24444444444444444",
"4444444444444444>o................................................................%$4444444444444444",
"44444444444444444-...............................................................o-44444444444444444",
"44444444444444444>+..............................................................-444444444444444444",
"444444444444444444>#............................................................%>444444444444444444",
"4444444444444444444;+..........................................................+,4444444444444444444",
"44444444444444444444*o........................................................+;44444444444444444444",
"44444444444444444444&%.......................................................o3444444444444444444444",
"444444444444444444444>#......................................................-4444444444444444444444",
"4444444444444444444444:#...................................................o*44444444444444444444444",
"44444444444444444444444=*.................................................o%;44444444444444444444444",
"444444444444444444444444;#................................................%=444444444444444444444444",
"4444444444444444444444444*+..............................................+*4444444444444444444444444",
"44444444444444444444444444%o............................................#<44444444444444444444444444",
"44444444444444444444444444@#...........................................o%444444444444444444444444444",
"444444444444444444444444444;+..........................................%&444444444444444444444444444",
"4444444444444444444444444444%.........................................o-4444444444444444444444444444",
"4444444444444444444444444444%.........................................+&4444444444444444444444444444",
"4444444444444444444444444444@+........................................;44444444444444444444444444444",
"4444444444444444444444444444X;........................................-44444444444444444444444444444",
"44444444444444444444444444444<........................................;44444444444444444444444444444",
"44444444444444444444444444444<........................................;44444444444444444444444444444",
"44444444444444444444444444444<........................................;44444444444444444444444444444",
"44444444444444444444444444444<........................................;44444444444444444444444444444",
"44444444444444444444444444444-........................................<44444444444444444444444444444",
"4444444444444444444444444444X%........................................344444444444444444444444444444",
"4444444444444444444444444444*+........................................;44444444444444444444444444444",
"4444444444444444444444444444;o........................................%44444444444444444444444444444",
"4444444444444444444444444444>.........................................o<4444444444444444444444444444",
"4444444444444444444444444444@.........................................o14444444444444444444444444444",
"4444444444444444444444444444$.........................................o<4444444444444444444444444444",
"4444444444444444444444444444-..........................................$4444444444444444444444444444",
"4444444444444444444444444444>..........................................-4444444444444444444444444444",
"4444444444444444444444444444;..........................................;4444444444444444444444444444",
"444444444444444444444444444 %...............+*%;;;;;;-*o..............o<4444444444444444444444444444",
"444444444444444444444444444@#............o+*14444444444<*+............o<4444444444444444444444444444",
"4444444444444444444444444442o..........o#-2444444444444442#oo..........>4444444444444444444444444444",
"4444444444444444444444444442o........o#-,444444444444444444*%#.........-4444444444444444444444444444",
"444444444444444444444444444>+.......+-<4444444444444444444444>-#......o<4444444444444444444444444444",
"444444444444444444444444444O*....o#$-44444444444444444444444444->#o....;4444444444444444444444444444",
"44444444444444444444444444442o.#;;&444444444444444444444444444444=;>#.o,4444444444444444444444444444",
"444444444444444444444444444443<>444444444444444444444444444444444444&1244444444444444444444444444444",
"4444444444444444444444444444444444444444444444444444444444444444444444444444444444444444444444444444",
"4444444444444444444444444444444444444444444444444444444444444444444444444444444444444444444444444444",
"4444444444444444444444444444444444444444444444444444444444444444444444444444444444444444444444444444",
"4444444444444444444444444444444444444444444444444444444444444444444444444444444444444444444444444444",
"4444444444444444444444444444444444444444444444444444444444444444444444444444444444444444444444444444",
"4444444444444444444444444444444444444444444444444444444444444444444444444444444444444444444444444444",
"4444444444444444444444444444444444444444444444444444444444444444444444444444444444444444444444444444",
"4444444444444444444444444444444444444444444444444444444444444444444444444444444444444444444444444444",
"4444444444444444444444444444444444444444444444444444444444444444444444444444444444444444444444444444",
"4444444444444444444444444444444444444444444444444444444444444444444444444444444444444444444444444444",
"4444444444444444444444444444444444444444444444444444444444444444444444444444444444444444444444444444",
"4444444444444444444444444444444444444444444444444444444444444444444444444444444444444444444444444444",
"4444444444444444444444444444444444444444444444444444444444444444444444444444444444444444444444444444",
"4444444444444444444444444444444444444444444444444444444444444444444444444444444444444444444444444444",
"4444444444444444444444444444444444444444444444444444444444444444444444444444444444444444444444444444"
};
