/* XPM */
static char *result[] = {
/* columns rows colors chars-per-pixel */
"100 100 89 1 ",
"  c None",
". c #1F1E1A",
"X c #221C1A",
"o c #23211E",
"O c #28221F",
"+ c #1A1F22",
"@ c #1B2023",
"# c #262521",
"$ c #2A2422",
"% c #2D2B26",
"& c #2D2D29",
"* c #302D27",
"= c #312E29",
"- c #2F302D",
"; c #34322C",
": c #39352E",
"> c #353532",
", c #3A3731",
"< c #3C3A34",
"1 c #3E3E3C",
"2 c #413E36",
"3 c #413F39",
"4 c #3F403E",
"5 c #424037",
"6 c #45433B",
"7 c #49463E",
"8 c #4B483F",
"9 c #464641",
"0 c #494741",
"q c #4D4A43",
"w c #4E4E49",
"e c #514E44",
"r c #504F49",
"t c #4F504B",
"y c #545146",
"u c #595347",
"i c #54534B",
"p c #59564B",
"a c #5D594E",
"s c #575750",
"d c #585750",
"f c #5D5B52",
"g c #605C4F",
"h c #625E52",
"j c #605F5A",
"k c #656155",
"l c #696456",
"z c #64625A",
"x c #6B6659",
"c c #6E695B",
"v c #726D5D",
"b c #75705F",
"n c #6E6C62",
"m c #726E61",
"M c #767161",
"N c #7A7564",
"B c #7E7867",
"V c #757369",
"C c #7A7669",
"Z c #7E7969",
"A c #7E7B71",
"S c #807967",
"D c #837D6A",
"F c #827E72",
"G c #86806E",
"H c #89826E",
"J c #868172",
"K c #8B8571",
"L c #8F8975",
"P c #878378",
"I c #898579",
"U c #8E8A7D",
"Y c #928B76",
"T c #948E79",
"R c #97917B",
"E c #9A937D",
"W c #938E80",
"Q c #959181",
"! c #9C9681",
"~ c #9F9884",
"^ c #A19A86",
"/ c #A49D8A",
"( c #A6A08E",
") c #A8A18E",
"_ c #A7A191",
"` c #ABA492",
"' c #AFA897",
"] c #AFA998",
"[ c #B0A998",
/* pixels */
"                                                                                                    ",
"                                 EEEEEE                                                             ",
"                             EEEEEEEEEEEEE                                                          ",
"                          RRRRRREEE~EEEEEEEEE                                                       ",
"                        TCu6uYTTRE`[`~EEEEEEEE                      YLL                             ",
"                      EGy<26<NYTR~'[[')^EEEEEEER                YYYLLLLLLK                          ",
"                     Rb25ijzsfDYT/'''''''`)EEERRRR         YYYYYYLLLLKKKHHHHH                       ",
"                    Rx20fzzzrfzmD`'''''''''^EEN6hYRTTTTTTYYYLYYYLLLLKHHHGGGGGGG                     ",
"                   Rl2wzzzzfqznAU``'''''''')ER,XXuTTTTTTYYYc;hLLLLKHHGGDDDDDDDDDD                   ",
"                  Ev<wzzzzzqfVnF!_`'''''''''~R6XXXvTTTTYYYY5@@xLLKHGGDDBg88ykNDDDDD                 ",
"                 RD20jzzzzirVAPI~``'```''```(RBOXX:YTYYYYYYq@@0LKHGDDDDy:::;;:qvDDDDD               ",
"                 Te5fzzzzs0nVPW!/````````````~Tb%XXDYYYYYLLHvvDHHGDDDDm:::;;;;;;ebDDDDB             ",
"                RM<izzzzs6nAJT!/(_```````````)TTHvvYYYYYLLLLLHKHGDDDNh0::<2<;;;;;:gBBSZB            ",
"                Tr6zzzzi6nmPW!//(`````````````^TYYYYYYLLLLLLLNcvNvlawii:qiiiw6<;;;;8MBBBC           ",
"                Y<wzzfq7zAPF~//(```````````````~YYYYYLLLLLLLKHNmxxzzfdi,0iiiiir0,;;;<cCCCC          ",
"                Y7rfr6inZFQ!//((``)`)```````))``^YYYLLLLLLLHHHDCMmcxzfr<<iiiiiiiw5;;;:kNNNN         ",
"               YTmr0icZJUJ~///())()))))))))))))))^YLLLLLKKKKHHDZNMmcfri0;9iiiiirrw0:;=;hNNNN        ",
"               TTCzzVAJUQW!//())(())))))))))))))))!LLLLKHKHHHGDDCNmpfzzd::wiirrrwwww<==;hNNNM       ",
"               TTNVmFITQ~///((((((((((((((((((((((/LLLKKHHHHGDDDZNMmcxzhw;<wrrwwwwwww<==;kMMM       ",
"               RTNZCIW!~////((//(((((((((((((((((((TLKKHHHHHGDDDDBNMmcxzf2;<wwwwwwwwww<==:cvmM      ",
"               RTCJIW!~////////////////////////////!KKHHHGGGDDDDDZCNmvczzf:;1wwwwwwwwww<=&6vvv      ",
"               ELJTQ~~/////////////////////////////~HHHHHDDGDDDDDZBNMmcxzzi;;<wwwwwwwwwq:&&uvv      ",
"              EEJQ!~~//////////////////////////////^HHHGHDDDDDDDDBCCNMmcxzzq;=<qwwwwwwww0=&:xvv     ",
"              EE~^~//////////////////////////////^!THHGGDGDDDDDDDBCCNNmvcxzpq;=:qwwwwwwqq1&&ycv     ",
"              EE^//^//////////////////////////^RLHHHGGGDDDDDDDDDBBCCNNMvvcxzii==;6wqwqqqqq;%<cc     ",
"             EE~//^///^^//^/////////////////^RKHHHHHGDDDDDDDDDDDBBCCNNNMvccxkri<==<0qqqqqq1%&lc     ",
"           EEEE~^^^^^^^^^^^^^^^^^^^^^^^^^^^^RHHHHHHDDDDDDDDDDDDDBCCCNNNMMvcxpfhf5=&=19qqqq6%&kx     ",
"           EEE~^~^^~^^^^^^^^^^^^^^^^^^^^^^^^THHGHGDDDDDDDDDDDBBBBCNNNNNNMmvkpzkfqi<&&&<60q1%;lx     ",
"          RRE~~~~~^^~^^^^^^^^^^^^^^^^^^^^^^^~KGGDDDDDDDDDSSSBCCCBCCNNNNMMmvucxzapfd6<&%%%&%&yll     ",
"         RRE~~~~~~~~~~~~~~~~~~~~~~~~~~~~~~~~YHDDDDDDDDDDSSSSBBCCCCCNNNNMMmaxccxihfd0iw6<:;<ykll     ",
"        RTE!!!!!~~~~~~~~~~~~~~~~~~~~~~~~~~~LGDDDDDDDDDDDSSSBCCCNNNNNNNMMMvlvvcxizhfqdiiwq39akkl     ",
"       TTTEEEEEE!!~~~~~~~~~~~~~~~~~~~~~~~!KDDDDDDDDDDDDBBBBCCCNNNNNNNNMMvvvvvcxkzkhpdpii6q6akkk     ",
"       TTRRRRYDREEE!~~~~~~~~~~~~~~~~~~~~~KDDDDDDDDDSSSSBBCCCNNNNNNNNNNMMvvvvvccxxkzhfdpi6w9akkk     ",
"      TTRRTTTcCLRREE~~~~~~~~~~~~~~~~~~~!LDDDDDDDDDSSBBBCCCCNNNNNNNNMMMMvvvvvvcccxxkhhfdwri0pkkk     ",
"      TTTTTYmcVFTRREE~~EE~EE~~~!~~~EEEETDDDDDDDDDDBBBBCCCCNNNNNNNMMMMvvvvvvvvcccxxkkhhf0piwikkk     ",
"     TTTTYLvfnVZITRREE!EEEEEE!!!!!!!EEEHDDDDDDDDSBBBCCCNNNNNNNNMMMMbvvvvvvvvcccxxxlkkhhqdpiykkk     ",
"     YLvcJxsznMCJTRRREEEEEEEEEEEEEEEEEYDDDDDSSSSBBCCCCNNNNNNNNMbMMvvvvvvvvvvcccxxxlkkzhifdiqhhh     ",
"    YYa<<5sfzczkJLTRRREEEEEEEEEEEEEEERDDDDDDSSSBBCCCNNNNNNNNMMbbvvvvvvvvvvvcccxxxlllkkzhfffuhhh     ",
"    YN<<2<6widcCJLTTRREEEEEEEEEEEEEEELDDDDDSBBBCCCCNNNNNNNMMMMbvvvvvvvvvvcccccxxxllkkkkhhhhhhhh     ",
"   YYu<2si<izcVCDITTRREEREEEEEEEEEEERDDDDDBSBBCCCCNNNNNNNMMMMvvvvvvvvvvcccccccxxlllkkkkkkhhhhhh     ",
"   YK2<wdd66hcmCDKLTTRRRRRRRRRRRRRRRYDSSSBBBCCCNNNNNNNNMMMMvvvvvvvvvvvcccccxxxxllllkkkkhhhhhhhh     ",
"   YN<<iddw<dcmCDKLYTTTRTTRRRRRRRRRRDSSSBBCCCCNNNNNNNNMMMMvvvvvvvvvvcccccxxxxlxlllkkkkkhhhhhhhh     ",
"  YYc<<sddi<wznNZJLLYTTTTTTTTTTTTTTYSSSBBCCCCNNNNNNNMMMMvvvvvvvvvvccccccxxxlllllllkkkhhhhhhhhhh     ",
"  YYp<6ssss35zzMZGKLLYTTTTTTTTTTTTTHSSBCCCCNNNNNNNNMMMbvvvvvvvvvvcccxcxxxxlllllkkkkkh;uhhhhhhhg     ",
"  YLq<0ssss9<ifVCDKLLLYYYYYYYYYYYYKBBBCCCCNNNNNNNMMMMvvvvvvvvvvcccccxxxxlllllllkkkkkgXuhhhhhhaa     ",
"  YK6:0ssssw:dcVCDJKLLLLLLLLLLLLLHBBCCCCNNNNNNNMMbMbvvvvvvvvvvcccccxxxxxxlllllkkkkhha$ahhhhaaaa     ",
"  LG2:qiiiii:icmCZJKKLLLLLLLLLLLDBCCCCNNNNNNNMMbMbvvvvvvvvvvcccccxxxxxxllllkkkkkkkhhhyhhgaaaaaa     ",
"  LD<:wiiiii<0cmMMGKKKKLKKLLLLHSBCCCNNNNNNNNMMvbvvvvvvvvvvvccccxxxxxxllllkkkkkkhhhhhhhgaaaaaaaa     ",
" LLD<:qiiisi<3iphmDGJKKKKKKKKKDCCCCNNNNNNNNNMMvvvvvvvvvvvcccccxxxxxllllkkkkkhhhhhhhhhgagaaaaaap     ",
" LKD::qiiiii<<znMZDDJJKKKKJKKKDCCNNNNNNNNMMMMvvvvvvvvvvcccccxxlxxxlllkkkkkhhhhhhhhhhhgapreuauuu     ",
" KKZ::qiiiii<,znMCDDDGJJJGGGGGZCNNNNNNNMNMMvvvvvvvvvvccccccxxxxxllllkkkkhhhhhhhghggaaaq*XX=iuuu     ",
" KHZ<;0iiiii3:znMNZDDDGGGDGGGGCNNNNNNNMMMbvvvvvvvvvvcccccxxxxxxlllkkkkkhhhhhhgggaaaaa7XXXXX2uuu     ",
" KGZ<;9iiiii5;rphcMZDDDDDDDDDDNNNNNNMMMMvvvvvvvvvvcccccxxxxxxlllkkkkkhhhhhhhfaaaeaaaeXXXXXX$iui     ",
"  GZ<;6iiiii5;fxczlcZDDDDDDDDCNNNNMMMMbvvvvvvvvvvcccccxxxxxxlllkkkkkhhhhhhffaaai7aaa,XXXXXXXryi     ",
"  GZ6;3ittii5;rzmMCZZZDZDZDDZNNNMMbbMvvvvvvvvvvcccccxxxxxxlllkkkkkhhhhhhfaaaapp6uapu$XXXXXXXeyy     ",
"  DZ8;<tttti1;axnMNCZZZZZZZZNNNMMMbvvvvvvvvvvvcccccxxxxxxlllkkkkkhhhhhfaaaappirqupuiXXXXXXXOyyy     ",
"  DBy;:wwwww1;izcmMNCZBZZZZCNMMMvvvvvvvvvvvvcccccxxxxxxlllkkkkkhhhhhfaaaappipi6uuuppOXXXXXX:yyy     ",
"  DCa;;wwwww<;fzcmMNNNNZCNNNMMMMvvvvvvvvvvcccccxxxxxxllllkkkkkhhhhhfaaapppriir6uuuuu%XXXXXX8yye     ",
"  DCk==9wwww,:fzcmMMNNNNNNNMMMvvvvvvvvvvvcccccxxxlxllllkkkkkhhhhhfaaaappii6ir0quppup2XXXXX6yerr     ",
"  DBc;=1wwww;<fzxcmMMMNNNNMMbvvvvvvvvvvcccccxxxxlxlllkkkkkhhhhhffaaappiiiw6ww1iii6wie%XXO7rrrrr     ",
"   DM<&:wwwq;5fzzcmmMMMNMMMvvvvvvvvvvccccccxxxllllllkkkkhhhayhfaaappiiiiiq6qq1iy6@#ryy76qrreree     ",
"   DMq&&9ww9&0fzzcnmMMMMMMvvvvvvvvvvcccccxxxlllxccxkkkhhhhhh7aaapppiiiiww06q93yy&++qyyyrrreeeeq     ",
"   SNf&&<qw3&ifzzccvvvmMMvvvvvvvvvcccccxxxxlxcvmmmvxkhhhhhhfquappiiiirwwq66995yw++;ryyrreeeeqqq     ",
"   BCc:&&9q>>idhzxccvvvmvvvvvvvvvcccccxxxlxcvmvvvckkhhhhhfaapqpiiiirrwqq061616yr16rrrrrrreqqqqq     ",
"    CMr%%;1&<idhzxcccccvvvvvvcvcccccxxxlxcvvvvvcxkhhhhhhfaaap6iiiirwq6<=%%;116rrrrrrrrreeeqqqq8     ",
"    CNl:%%%<w9ifzzxcccccvvvvvcccccxxxxxccccccccxkhhhhhfapaapp6irr6q1&OOooooo%6rrreeerreqqqqq888     ",
"     Nva;%;qwiwizzxxxcccvvvvcccccxxxxcccccccccxkhhhhhaaaqrpii0060>%OOoo%>><#o&wreeeeeeqqqqq8q87     ",
"     NMxhfa6qidihzxxxxxxvvcccccxxxxxxxxxxcxxxxkhhhhaaaapp5iiiw59%OOO#>14441%oo6wqeqeqqqqq888877     ",
"      Mckkkh7idfhklxxxxxccccccxxxxxxxxxxxxxxxkhhhhaaaappiw5irw;#OO#>1644144#oo3qqqqeqqqqqq87777     ",
"      Mvlkzzh0iffzkkllxxxcccxxxxxzxxxxxxxxxllhhhhaaappiiii6qq>OOO;164411111oXX6qqqqqqq88887777      ",
"       mvkzhhf0dfzkkkkklkklkkkkkkkkkkkkkzkkkkhfaaaappiiiirq<=OO$<664411111&XXo7qqqqqq888777777      ",
"       vvxhhhhiifhzkkkkkkkkkkkkkkkkkkkkkkkkkhaaaaappiiirww9%Oo&16441111111oXX=qqqqq8887777776       ",
"        vvlhhhhqfhhhhzkzzzzkkzzzzzzzzzkkzzhhaaaappiiii56w9%OO;44411111111%XXX5qqqqqq877777666       ",
"         vvkhffiihhhhhhhhhhhhhhhhhhhhhhhhhhhaaappiiirww31&oO>44411111111;XXX=qqqq00877777666        ",
"          vchffawfffhhffhhhhhhhhhfffhhhhhffaaapiqiirwqq9%oO>44111111111>XX.o6q8q00877776666         ",
"          vvchffafffffffffffaaffffffaafffffaapii65wwqq9;oo>44111111111<o...<08880777776666          ",
"           ccxhaaaaaffaaaaaaaaaaaaaafffaaaaappiir66qq91oo>41111111111<o...;87877777766666           ",
"            ccxhaaaaaaaaaaaaaaaaaaaaaafaaaappiirwq<996#o;11111111111<O...%78887777766666            ",
"            ccxxkaapppppppppppppppppppapppuuuirwqq619;o%11111111111>o...$67787777666666             ",
"             xxxxkaaaappppppppppppppppppppuui39q099>1oO11111111111>o...$67777776666666              ",
"             lllllllkkappppppaaaapppppippiuupy6,166<&o>1111111111&....%67777776666666               ",
"              llllkkkkhiiipagghgaaauiiiiiiuuiyyy6>11##111111111>#....=7777776666666                 ",
"              llkkkkkkhapahhhagaaaaapiiiipuuyyyyrw<>#-1111111<%X....,7777776666666                  ",
"               kkkkkkhhhhhhhgaaaaaaaauuupuuiyyyrrrr<o&11111>&X....#27777766666665                   ",
"               kkkkhhhhhhhggaaaaaaapuuuuuuiiyyyrrrr6Xo&>>&#......;677776<,366655                    ",
"                khhhhhhhhgaaaaaaaappuuuuuiiiyyrrrrq6oXXXX......$2777776;XXX,6553                    ",
"                hhhhhhhgaaaaaaapappuuuuipiyyyrreeeqq&XX......%<77777662XXXXX<33                     ",
"                 hhg<:uaaaaaaapupuuuuiiiiiyyyrrreqqq7&o..o#;2777777666;XXXXX$32                     ",
"                 hhuXX;aaaaapuuuuuuuuuyeqyyrrrreqqqqq86556777777766666%XXXXXX<2                     ",
"                  ga:XX7au<=6uuuuuiuy6$XX6yreereqqqqq80077777777666526=XXXXXX=<                     ",
"                   ap:X<p:XXX;iuuiyy7XXXX7rrreeqqqq8q887777777666<%XX<<XXXXXXX<                     ",
"                    aaiurXXXXX<iyyyy:XXX;eeeeeqqqq88087777776662%XXXX<3<$XXXXX<                     ",
"                      pu2XXXXXOryyyy2XX:qeeeqqqqqqq00777777666,XXXXX$222<;%XX;                      ",
"                      uu<XXXXXX6yyyrr7qreeqqqqqqqqq0777776666=XXXXXX<22<<<<<<                       ",
"                       u6XXXXXX*ryrrrree         87777766666*XXXXXO<2                               ",
"                        y;XXXXXX8rrrre              7666666:XXXXX%<2                                ",
"                         y2$XXX$eeee                  66666<$XXO:2<                                 ",
"                         yyr6,:8eee                    665552,:<2<                                  ",
"                          yrrrrre                         33322<                                    ",
"                            rr                                                                      "
};
